<svg width="112" height="19" fill="none" xmlns="http://www.w3.org/2000/svg"><path d="M6.574 15.504c.625 0 1.133-.172 1.524-.516.39-.343.593-.8.609-1.37h3.176a4.374 4.374 0 01-.703 2.366c-.461.711-1.094 1.266-1.899 1.664-.797.391-1.68.586-2.648.586-1.813 0-3.242-.574-4.29-1.722-1.046-1.157-1.57-2.75-1.57-4.782v-.222c0-1.953.52-3.512 1.559-4.676 1.04-1.164 2.465-1.746 4.277-1.746 1.586 0 2.856.453 3.809 1.36.96.898 1.45 2.097 1.465 3.597H8.707c-.016-.656-.219-1.188-.61-1.594-.39-.414-.906-.62-1.546-.62-.79 0-1.387.288-1.793.866-.399.57-.598 1.5-.598 2.79v.35c0 1.306.2 2.243.598 2.813.398.57 1.004.856 1.816.856zm6.715-3.961c0-1.258.242-2.379.727-3.363.484-.985 1.18-1.746 2.086-2.285.914-.54 1.972-.81 3.175-.81 1.711 0 3.106.524 4.184 1.571 1.086 1.047 1.691 2.469 1.816 4.266l.024.867c0 1.945-.543 3.508-1.63 4.688-1.085 1.171-2.542 1.757-4.37 1.757-1.828 0-3.29-.586-4.383-1.757-1.086-1.172-1.629-2.766-1.629-4.782v-.152zm3.387.246c0 1.203.226 2.125.68 2.766.453.633 1.101.949 1.945.949.82 0 1.46-.313 1.922-.938.46-.632.691-1.64.691-3.023 0-1.18-.23-2.094-.691-2.742-.461-.649-1.11-.973-1.946-.973-.828 0-1.468.324-1.922.973-.453.64-.68 1.636-.68 2.988zm10.183-.223c0-1.976.442-3.55 1.325-4.722.89-1.172 2.105-1.758 3.644-1.758 1.235 0 2.254.46 3.059 1.383V0h3.398v18h-3.058l-.164-1.348c-.844 1.055-1.93 1.582-3.258 1.582-1.492 0-2.692-.586-3.598-1.757-.898-1.18-1.348-2.817-1.348-4.91zm3.387.246c0 1.188.207 2.098.621 2.731.414.633 1.016.95 1.805.95 1.047 0 1.785-.442 2.215-1.325V9.164c-.422-.883-1.153-1.324-2.192-1.324-1.633 0-2.449 1.324-2.449 3.973zm16.5 6.422c-1.86 0-3.375-.57-4.547-1.71-1.164-1.141-1.746-2.66-1.746-4.56v-.327c0-1.274.246-2.41.738-3.41.493-1.008 1.188-1.782 2.086-2.32.907-.548 1.938-.821 3.094-.821 1.734 0 3.098.547 4.09 1.64 1 1.094 1.5 2.645 1.5 4.653v1.383h-8.074c.11.828.437 1.492.984 1.992.555.5 1.254.75 2.098.75 1.304 0 2.324-.473 3.058-1.418l1.664 1.863c-.507.719-1.195 1.281-2.062 1.688-.867.398-1.828.597-2.883.597zM46.36 7.828c-.672 0-1.218.227-1.64.68-.414.453-.68 1.101-.797 1.945h4.71v-.27c-.015-.75-.218-1.328-.609-1.734-.39-.414-.945-.62-1.664-.62zm15.13 8.883c-.837 1.016-1.993 1.523-3.47 1.523-1.359 0-2.398-.39-3.117-1.172-.71-.78-1.074-1.925-1.09-3.433V5.32H57.2v8.192c0 1.32.602 1.98 1.805 1.98 1.148 0 1.937-.398 2.367-1.195V5.32h3.398V18h-3.187l-.094-1.29zM70.44 5.32l.106 1.464c.906-1.133 2.121-1.7 3.644-1.7 1.344 0 2.344.395 3 1.185.657.789.993 1.968 1.008 3.539V18h-3.386V9.89c0-.718-.157-1.238-.47-1.558-.312-.328-.831-.492-1.558-.492-.953 0-1.668.406-2.144 1.219V18h-3.387V5.32h3.187zM84.351 18h-3.398V5.32h3.399V18zM80.755 2.04c0-.509.168-.927.504-1.255.344-.328.808-.492 1.394-.492.579 0 1.04.164 1.383.492.344.328.516.746.516 1.254 0 .516-.176.938-.528 1.266-.343.328-.8.492-1.37.492-.571 0-1.032-.164-1.384-.492-.343-.328-.515-.75-.515-1.266zm5.871 9.503c0-1.258.242-2.379.727-3.363.484-.985 1.18-1.746 2.085-2.285.915-.54 1.973-.81 3.176-.81 1.711 0 3.106.524 4.184 1.571 1.086 1.047 1.691 2.469 1.816 4.266l.024.867c0 1.945-.543 3.508-1.63 4.688-1.085 1.171-2.542 1.757-4.37 1.757-1.828 0-3.29-.586-4.383-1.757-1.086-1.172-1.629-2.766-1.629-4.782v-.152zm3.387.246c0 1.203.226 2.125.68 2.766.453.633 1.101.949 1.945.949.82 0 1.46-.313 1.922-.938.46-.632.691-1.64.691-3.023 0-1.18-.23-2.094-.691-2.742-.461-.649-1.11-.973-1.946-.973-.828 0-1.469.324-1.922.973-.453.64-.68 1.636-.68 2.988zM103.84 5.32l.105 1.465c.907-1.133 2.121-1.7 3.645-1.7 1.344 0 2.344.395 3 1.185.656.789.992 1.968 1.008 3.539V18h-3.387V9.89c0-.718-.156-1.238-.469-1.558-.312-.328-.832-.492-1.558-.492-.954 0-1.668.406-2.145 1.219V18h-3.387V5.32h3.188z" fill="#fff"/></svg>